<?xml version="1.0" encoding="UTF-8"?>
<!DOCTYPE svg PUBLIC "-//W3C//DTD SVG 1.1//EN" "http://www.w3.org/Graphics/SVG/1.1/DTD/svg11.dtd">
<svg xmlns="http://www.w3.org/2000/svg" version="1.1" width="500px" height="500px" style="shape-rendering:geometricPrecision; text-rendering:geometricPrecision; image-rendering:optimizeQuality; fill-rule:evenodd; clip-rule:evenodd" xmlns:xlink="http://www.w3.org/1999/xlink">
<g><path style="opacity:0.999" fill="#935aff" d="M 221.5,198.5 C 221.41,201.152 222.076,203.485 223.5,205.5C 225.102,209.239 226.102,213.239 226.5,217.5C 226.41,220.152 227.076,222.485 228.5,224.5C 230.102,228.239 231.102,232.239 231.5,236.5C 231.41,239.152 232.076,241.485 233.5,243.5C 235.102,247.239 236.102,251.239 236.5,255.5C 236.41,258.152 237.076,260.485 238.5,262.5C 244.613,283.277 250.28,304.277 255.5,325.5C 255.41,328.152 256.076,330.485 257.5,332.5C 258.434,333.568 258.768,334.901 258.5,336.5C 258.41,339.152 259.076,341.485 260.5,343.5C 262.074,346.907 263.074,350.573 263.5,354.5C 263.369,355.376 263.702,356.043 264.5,356.5C 265.466,354.604 265.799,352.604 265.5,350.5C 274.773,292.527 283.94,234.527 293,176.5C 293.667,163.5 293.667,150.5 293,137.5C 291.262,121.31 288.429,105.31 284.5,89.5C 284.39,87.626 285.056,86.126 286.5,85C 300.167,84.3333 313.833,84.3333 327.5,85C 328.98,86.2991 329.646,87.9658 329.5,90C 324.204,106.22 318.704,122.386 313,138.5C 309.843,150.129 306.843,161.795 304,173.5C 292.117,241.462 280.451,309.462 269,377.5C 268.5,378 268,378.5 267.5,379C 250.167,379.667 232.833,379.667 215.5,379C 214.833,378 214.167,377 213.5,376C 214.437,373.051 215.437,370.217 216.5,367.5C 217.924,365.485 218.59,363.152 218.5,360.5C 224.951,334.749 226.117,308.749 222,282.5C 205.664,217.988 188.164,153.821 169.5,90C 169.629,88.0194 170.296,86.3528 171.5,85C 189.167,84.3333 206.833,84.3333 224.5,85C 226.504,87.8408 227.004,91.0074 226,94.5C 213.795,128.703 212.295,163.369 221.5,198.5 Z"/></g>
<g><path style="opacity:0.765" fill="#c09cff" d="M 221.5,198.5 C 222.924,200.515 223.59,202.848 223.5,205.5C 222.076,203.485 221.41,201.152 221.5,198.5 Z"/></g>
<g><path style="opacity:0.749" fill="#c19dff" d="M 226.5,217.5 C 227.924,219.515 228.59,221.848 228.5,224.5C 227.076,222.485 226.41,220.152 226.5,217.5 Z"/></g>
<g><path style="opacity:0.753" fill="#c19fff" d="M 231.5,236.5 C 232.924,238.515 233.59,240.848 233.5,243.5C 232.076,241.485 231.41,239.152 231.5,236.5 Z"/></g>
<g><path style="opacity:0.733" fill="#c3a0ff" d="M 236.5,255.5 C 237.924,257.515 238.59,259.848 238.5,262.5C 237.076,260.485 236.41,258.152 236.5,255.5 Z"/></g>
<g><path style="opacity:0.925" fill="#c19dff" d="M 255.5,325.5 C 256.924,327.515 257.59,329.848 257.5,332.5C 256.076,330.485 255.41,328.152 255.5,325.5 Z"/></g>
<g><path style="opacity:0.929" fill="#bf9aff" d="M 258.5,336.5 C 259.924,338.515 260.59,340.848 260.5,343.5C 259.076,341.485 258.41,339.152 258.5,336.5 Z"/></g>
<g><path style="opacity:0.91" fill="#bb95ff" d="M 265.5,350.5 C 265.799,352.604 265.466,354.604 264.5,356.5C 263.702,356.043 263.369,355.376 263.5,354.5C 264.167,353.167 264.833,351.833 265.5,350.5 Z"/></g>
<g><path style="opacity:0.78" fill="#c19eff" d="M 218.5,360.5 C 218.59,363.152 217.924,365.485 216.5,367.5C 216.41,364.848 217.076,362.515 218.5,360.5 Z"/></g>
</svg>
